{
  "accessors": [
    {
      "bufferView": 3,
      "componentType": 5126,
      "count": 1972,
      "max": [
        1.6952431201934814,
        4.591491222381592,
        1.2062188386917114
      ],
      "min": [
        -1.6084973812103271,
        -2.683121681213379,
        -0.4492552578449249
      ],
      "type": "VEC3"
    },
    {
      "bufferView": 3,
      "byteOffset": 23664,
      "componentType": 5126,
      "count": 1972,
      "max": [
        0.9993445873260498,
        0.9956921935081482,
        0.9998263716697693
      ],
      "min": [
        -0.9978916645050049,
        -0.9951757192611694,
        -0.9997071623802185
      ],
      "type": "VEC3"
    },
    {
      "bufferView": 4,
      "componentType": 5126,
      "count": 1972,
      "max": [
        0.9978213906288147,
        0.9971306920051575,
        0.9996538162231445,
        1.0
      ],
      "min": [
        -0.9999620318412781,
        -0.9937942624092102,
        -0.9997860789299011,
        -1.0
      ],
      "type": "VEC4"
    },
    {
      "bufferView": 2,
      "componentType": 5126,
      "count": 1972,
      "max": [
        0.9997560381889343,
        0.9908299446105957
      ],
      "min": [
        0.00024394899082835764,
        0.00024394899082835764
      ],
      "type": "VEC2"
    },
    {
      "bufferView": 1,
      "componentType": 5125,
      "count": 9378,
      "type": "SCALAR"
    },
    {
      "bufferView": 3,
      "byteOffset": 47328,
      "componentType": 5126,
      "count": 12,
      "max": [
        0.04170844331383705,
        2.704263210296631,
        1.3586654663085938
      ],
      "min": [
        -2.2231011390686035,
        0.9794274568557739,
        -1.0514930486679077
      ],
      "type": "VEC3"
    },
    {
      "bufferView": 3,
      "byteOffset": 47472,
      "componentType": 5126,
      "count": 12,
      "max": [
        0.6448560357093811,
        0.23470842838287354,
        1.2961797857258262e-08
      ],
      "min": [
        -0.6835075616836548,
        -0.9396926164627075,
        -0.7273738384246826
      ],
      "type": "VEC3"
    },
    {
      "bufferView": 2,
      "byteOffset": 15776,
      "componentType": 5126,
      "count": 12,
      "max": [
        0.9893857836723328,
        0.9893858432769775
      ],
      "min": [
        0.01061415858566761,
        0.010614156723022461
      ],
      "type": "VEC2"
    },
    {
      "bufferView": 1,
      "byteOffset": 37512,
      "componentType": 5125,
      "count": 18,
      "type": "SCALAR"
    },
    {
      "bufferView": 5,
      "componentType": 5126,
      "count": 5,
      "max": [
        100.0,
        0.0,
        0.0,
        0.0,
        0.0,
        99.99999237060547,
        0.0,
        0.0,
        0.0,
        0.0,
        99.99999237060547,
        0.0,
        1.0906959772109985,
        0.0,
        0.0,
        1.0
      ],
      "min": [
        1.0,
        0.0,
        0.0,
        0.0,
        0.0,
        0.9999999403953552,
        0.0,
        0.0,
        0.0,
        0.0,
        0.9999999403953552,
        0.0,
        -0.9093040227890015,
        -1.8418457508087158,
        -0.15358617901802063,
        1.0
      ],
      "type": "MAT4"
    },
    {
      "bufferView": 0,
      "componentType": 5123,
      "count": 1972,
      "type": "VEC4"
    },
    {
      "bufferView": 4,
      "byteOffset": 31552,
      "componentType": 5126,
      "count": 1972,
      "max": [
        1.0,
        0.0,
        0.0,
        0.0
      ],
      "min": [
        1.0,
        0.0,
        0.0,
        0.0
      ],
      "type": "VEC4"
    },
    {
      "bufferView": 0,
      "byteOffset": 15776,
      "componentType": 5123,
      "count": 12,
      "type": "VEC4"
    },
    {
      "bufferView": 4,
      "byteOffset": 63104,
      "componentType": 5126,
      "count": 12,
      "max": [
        1.0,
        0.0,
        0.0,
        0.0
      ],
      "min": [
        1.0,
        0.0,
        0.0,
        0.0
      ],
      "type": "VEC4"
    },
    {
      "bufferView": 6,
      "componentType": 5126,
      "count": 33,
      "max": [
        0.6666666865348816
      ],
      "min": [
        0.0
      ],
      "type": "SCALAR"
    },
    {
      "bufferView": 7,
      "componentType": 5126,
      "count": 33,
      "max": [
        0.7071068286895752,
        0.7071068286895752,
        0.7071067094802856,
        1.0
      ],
      "min": [
        -0.7071067690849304,
        -0.5000000596046448,
        -0.5912436246871948,
        -0.4765399992465973
      ],
      "type": "VEC4"
    }
  ],
  "animations": [
    {
      "channels": [
        {
          "sampler": 0,
          "target": {
            "node": 12,
            "path": "rotation"
          }
        }
      ],
      "name": "Armature|Action",
      "samplers": [
        {
          "input": 14,
          "interpolation": "LINEAR",
          "output": 15
        }
      ]
    }
  ],
  "asset": {
    "extras": {
      "author": "Blender3D (https://sketchfab.com/Blender3D)",
      "license": "CC-BY-4.0 (http://creativecommons.org/licenses/by/4.0/)",
      "source": "https://sketchfab.com/3d-models/basic-tnt-9adc3cc75161409b9f7e1189ac0c77b2",
      "title": "Basic TNT"
    },
    "generator": "Sketchfab-12.74.0",
    "version": "2.0"
  },
  "bufferViews": [
    {
      "buffer": 0,
      "byteLength": 15872,
      "byteStride": 8,
      "name": "shortBufferViews",
      "target": 34962
    },
    {
      "buffer": 0,
      "byteLength": 37584,
      "byteOffset": 15872,
      "name": "floatBufferViews",
      "target": 34963
    },
    {
      "buffer": 0,
      "byteLength": 15872,
      "byteOffset": 53456,
      "byteStride": 8,
      "name": "floatBufferViews",
      "target": 34962
    },
    {
      "buffer": 0,
      "byteLength": 47616,
      "byteOffset": 69328,
      "byteStride": 12,
      "name": "floatBufferViews",
      "target": 34962
    },
    {
      "buffer": 0,
      "byteLength": 63296,
      "byteOffset": 116944,
      "byteStride": 16,
      "name": "floatBufferViews",
      "target": 34962
    },
    {
      "buffer": 0,
      "byteLength": 320,
      "byteOffset": 180240,
      "name": "floatBufferViews"
    },
    {
      "buffer": 0,
      "byteLength": 132,
      "byteOffset": 180560,
      "name": "floatBufferViews"
    },
    {
      "buffer": 0,
      "byteLength": 528,
      "byteOffset": 180692,
      "byteStride": 16,
      "name": "floatBufferViews"
    }
  ],
  "buffers": [
    {
      "byteLength": 181220,
      "uri": "scene.bin"
    }
  ],
  "extensionsRequired": [
    "KHR_materials_pbrSpecularGlossiness"
  ],
  "extensionsUsed": [
    "KHR_materials_pbrSpecularGlossiness"
  ],
  "images": [
    {
      "uri": "textures/Material.004_diffuse.jpeg"
    },
    {
      "uri": "textures/Material.004_specularGlossiness.png"
    },
    {
      "uri": "textures/Material.004_normal.jpeg"
    },
    {
      "uri": "textures/Material.004_occlusion.png"
    },
    {
      "uri": "textures/Material.005_diffuse.png"
    },
    {
      "uri": "textures/Material.005_emissive.png"
    }
  ],
  "materials": [
    {
      "doubleSided": true,
      "extensions": {
        "KHR_materials_pbrSpecularGlossiness": {
          "diffuseFactor": [
            1.0,
            1.0,
            1.0,
            1.0
          ],
          "diffuseTexture": {
            "index": 0
          },
          "glossinessFactor": 1.0,
          "specularFactor": [
            0.03211306230162108,
            0.03211306230162108,
            0.03211306230162108
          ],
          "specularGlossinessTexture": {
            "index": 1
          }
        }
      },
      "name": "Material.004",
      "normalTexture": {
        "index": 2
      },
      "occlusionTexture": {
        "index": 3
      }
    },
    {
      "alphaMode": "BLEND",
      "doubleSided": true,
      "emissiveFactor": [
        1.0,
        1.0,
        1.0
      ],
      "emissiveTexture": {
        "index": 5
      },
      "extensions": {
        "KHR_materials_pbrSpecularGlossiness": {
          "diffuseFactor": [
            1.0,
            1.0,
            1.0,
            1.0
          ],
          "diffuseTexture": {
            "index": 4
          },
          "glossinessFactor": 0.19595917942265426,
          "specularFactor": [
            0.0,
            0.0,
            0.0
          ]
        }
      },
      "name": "Material.005"
    }
  ],
  "meshes": [
    {
      "name": "Plane_Material.004_0",
      "primitives": [
        {
          "attributes": {
            "JOINTS_0": 10,
            "NORMAL": 1,
            "POSITION": 0,
            "TANGENT": 2,
            "TEXCOORD_0": 3,
            "TEXCOORD_1": 3,
            "TEXCOORD_2": 3,
            "WEIGHTS_0": 11
          },
          "indices": 4,
          "material": 0,
          "mode": 4
        }
      ]
    },
    {
      "name": "Plane.001_Material.005_0",
      "primitives": [
        {
          "attributes": {
            "JOINTS_0": 12,
            "NORMAL": 6,
            "POSITION": 5,
            "TEXCOORD_0": 7,
            "WEIGHTS_0": 13
          },
          "indices": 8,
          "material": 1,
          "mode": 4
        }
      ]
    }
  ],
  "nodes": [
    {
      "children": [
        1
      ],
      "matrix": [
        1.0,
        0.0,
        0.0,
        0.0,
        0.0,
        2.220446049250313e-16,
        -1.0,
        0.0,
        0.0,
        1.0,
        2.220446049250313e-16,
        0.0,
        0.0,
        0.0,
        0.0,
        1.0
      ],
      "name": "Sketchfab_model"
    },
    {
      "children": [
        2
      ],
      "matrix": [
        0.009999999776482582,
        0.0,
        0.0,
        0.0,
        0.0,
        0.0,
        0.009999999776482582,
        0.0,
        0.0,
        -0.009999999776482582,
        0.0,
        0.0,
        0.0,
        0.0,
        0.0,
        1.0
      ],
      "name": "SimpleTNT.fbx"
    },
    {
      "children": [
        3
      ],
      "name": "Object_2"
    },
    {
      "children": [
        4,
        5,
        16
      ],
      "name": "RootNode"
    },
    {
      "name": "Plane",
      "rotation": [
        -0.7316105365753174,
        -0.0824933797121048,
        0.08998456597328186,
        0.6707038283348083
      ],
      "scale": [
        100.0,
        100.0,
        100.0
      ],
      "translation": [
        40.256248474121094,
        14.912069320678711,
        37.484954833984375
      ]
    },
    {
      "children": [
        6
      ],
      "name": "Armature",
      "rotation": [
        -0.7071068286895752,
        0.0,
        0.0,
        0.7071067094802856
      ],
      "scale": [
        100.0,
        100.0,
        100.0
      ],
      "translation": [
        90.93040466308594,
        184.1845703125,
        15.358617782592773
      ]
    },
    {
      "children": [
        7,
        9,
        15,
        8,
        14
      ],
      "name": "Object_6"
    },
    {
      "children": [
        10,
        12
      ],
      "name": "_rootJoint"
    },
    {
      "matrix": [
        97.01952338218688,
        24.141199886798862,
        -2.1010054275393486,
        0.0,
        2.80066626125098e-07,
        -8.670214506527103,
        -99.62342388458363,
        0.0,
        -24.23245159790286,
        96.6541711296179,
        -8.411800867253136,
        0.0,
        40.25625228881836,
        14.91206407546997,
        37.484951198101044,
        1.0
      ],
      "name": "Object_8"
    },
    {
      "mesh": 0,
      "name": "Object_9",
      "skin": 0
    },
    {
      "children": [
        11
      ],
      "name": "Bone_00",
      "rotation": [
        0.7071068286895752,
        0.0,
        0.0,
        0.7071067094802856
      ]
    },
    {
      "name": "Bone_end_02",
      "translation": [
        0.0,
        1.0,
        0.0
      ]
    },
    {
      "children": [
        13
      ],
      "name": "Bone.001_01",
      "rotation": [
        0.7071068286895752,
        0.0,
        0.0,
        0.7071067094802856
      ],
      "translation": [
        -2.0,
        0.0,
        0.0
      ]
    },
    {
      "name": "Bone.001_end_03",
      "translation": [
        0.0,
        1.0,
        0.0
      ]
    },
    {
      "matrix": [
        97.01952338218688,
        24.141199886798862,
        -2.1010054275393486,
        0.0,
        2.80066626125098e-07,
        -8.670214506527103,
        -99.62342388458363,
        0.0,
        -24.23245159790286,
        96.6541711296179,
        -8.411800867253136,
        0.0,
        40.25625228881836,
        14.91206407546997,
        37.48495715856552,
        1.0
      ],
      "name": "Object_14"
    },
    {
      "mesh": 1,
      "name": "Object_15",
      "skin": 0
    },
    {
      "name": "Plane.001",
      "rotation": [
        -0.7316105365753174,
        -0.0824933797121048,
        0.08998456597328186,
        0.6707038283348083
      ],
      "scale": [
        100.0,
        100.0,
        100.0
      ],
      "translation": [
        40.256248474121094,
        14.912069320678711,
        37.48495864868164
      ]
    }
  ],
  "samplers": [
    {
      "magFilter": 9729,
      "minFilter": 9987,
      "wrapS": 10497,
      "wrapT": 10497
    }
  ],
  "scene": 0,
  "scenes": [
    {
      "name": "Sketchfab_Scene",
      "nodes": [
        0
      ]
    }
  ],
  "skins": [
    {
      "inverseBindMatrices": 9,
      "joints": [
        7,
        10,
        11,
        12,
        13
      ],
      "skeleton": 7
    }
  ],
  "textures": [
    {
      "sampler": 0,
      "source": 0
    },
    {
      "sampler": 0,
      "source": 1
    },
    {
      "sampler": 0,
      "source": 2
    },
    {
      "sampler": 0,
      "source": 3
    },
    {
      "sampler": 0,
      "source": 4
    },
    {
      "sampler": 0,
      "source": 5
    }
  ]
}
